# xmcd
#
# Track frame offsets: 
#        150
#        13442
#        26320
#        41187
#        57995
#        70905
#        84307
#        97175
#        111002
#        124957
#        136965
#        150767
#        163160
#        177132
#        191182
#        200747
#        214205
#        225602
#        239135
#        249882
#        260910
#        271477
#        283632
#        295300
#        307492
#        320672
#        333312
#        346842
#
# Disc length: 4798 seconds
#
# Revision: 0
# Processed by: cddbd v1.5.1PL0 Copyright (c) Steve Scherf et al.
# Submitted via: ExactAudioCopy v0.95a4
#
DISCID=ba12bc1c
DTITLE=The Blue Sky Boys - The Sunny Side Of Life - Disc 2
DYEAR=1900
DGENRE=Country
TTITLE0=Hymns My Mother Sang
TTITLE1=Have No Desire To Roam
TTITLE2=No Disappointment In Heaven
TTITLE3=Story Of The Knoxville Girl
TTITLE4=On The Old Plantation
TTITLE5=In My Little Home In Tennessee
TTITLE6=Beautiful, Beautiful Brown Eyes
TTITLE7=The Prisoner's Dream
TTITLE8=The Answer To The Prisoner's Dream
TTITLE9=When The Stars Begin To Fall
TTITLE10=We Buried Her
TTITLE11=Heaven Holds All To Me
TTITLE12=Little Bessie
TTITLE13=I Need The Prayers
TTITLE14=Old Fashioned Meeting
TTITLE15=Katie Dear
TTITLE16=Who Wouldn't Be Lonely
TTITLE17=Life-Line
TTITLE18=When The Valley Moon Was Low
TTITLE19=My Last Letter
TTITLE20=Mother Went Her Holiness Way
TTITLE21=Hang Out The Front Door Key
TTITLE22=This Is Like Heaven To Me
TTITLE23=I've Found A Friend
TTITLE24=Asleep In The Briny Deep
TTITLE25=Last Night While Standing By My Window
TTITLE26=There Was A Time
TTITLE27=Bring Back My Wandering Boy
EXTD=
EXTT0=
EXTT1=
EXTT2=
EXTT3=
EXTT4=
EXTT5=
EXTT6=
EXTT7=
EXTT8=
EXTT9=
EXTT10=
EXTT11=
EXTT12=
EXTT13=
EXTT14=
EXTT15=
EXTT16=
EXTT17=
EXTT18=
EXTT19=
EXTT20=
EXTT21=
EXTT22=
EXTT23=
EXTT24=
EXTT25=
EXTT26=
EXTT27=
PLAYORDER=
